<svg id="Layer_1" data-name="Layer 1" xmlns="http://www.w3.org/2000/svg" viewBox="0 0 1921 1081"><defs><style>.cls-1{fill:#231f20;stroke:#fff;stroke-miterlimit:10;}.cls-2{fill:#fff;}</style></defs><title>AIML_logo_white_on_black</title><rect class="cls-1" x="0.5" y="0.5" width="1920" height="1080"/><polygon class="cls-2" points="144.09 786.86 144.09 883.07 200.3 883.07 200.3 878.39 149.03 878.39 149.03 836.2 192.06 836.2 192.06 831.53 149.03 831.53 149.03 791.54 200.3 791.54 200.3 786.86 144.09 786.86"/><path class="cls-2" d="M227.79,882.57H223V813.85h4.81v5.5a51.31,51.31,0,0,1,25-6.73q12.78,0,17.18,6.94t4.4,27.28v35.73h-4.81V847.11q0-18.15-3.3-24.12t-14.43-6a41.62,41.62,0,0,0-11.48,1.71,56.43,56.43,0,0,0-9.27,3.37l-3.3,1.79Z" transform="translate(0.96 0.5)"/><path class="cls-2" d="M305.3,852.74q-3.29,3.71-3.3,11.13t3.37,11.48q3.37,4.06,9.41,4.05A61,61,0,0,0,327.57,878a86.92,86.92,0,0,0,10.58-2.82l3.85-1.38V845.6l-25.56,2.61q-7.83.83-11.13,4.53m41.51-18.69v39.58q.55,5,10.31,5.77l-.28,4.26q-10,0-14.16-5.77a71,71,0,0,1-27.76,5.92q-8.53,0-13.27-5.09t-4.74-14.5q0-9.41,4.53-14.36t14.43-5.91L342,841.2v-7.14q0-8.79-3.78-12.78t-11.48-4A181.28,181.28,0,0,0,305,819.07l-4.27.55-.41-4.53a170,170,0,0,1,26.39-2.48q20.07,0,20.07,21.44" transform="translate(0.96 0.5)"/><path class="cls-2" d="M379.52,878.58q10.72.83,17.39.83a37.28,37.28,0,0,0,12-1.79,14.65,14.65,0,0,0,8-6.19,26.42,26.42,0,0,0,3.64-9.83,93.62,93.62,0,0,0,.89-14.5q0-16.22-3.71-23.16T403.16,817a50.35,50.35,0,0,0-11.41,1.38,55.36,55.36,0,0,0-9.08,2.75l-3.16,1.38Zm0-60.47a55.13,55.13,0,0,1,24.26-5.5q12.85,0,17.8,8t4.95,27.35q0,19.38-6.46,27.62t-24.88,8.25a144.24,144.24,0,0,1-17.45-1l-3-.28V782.24h4.81Z" transform="translate(0.96 0.5)"/><rect class="cls-2" x="453.05" y="782.74" width="4.8" height="100.33"/><path class="cls-2" d="M485.21,882.57H490V813.85h-4.81Zm0-88.65H490v-7.56h-4.81Z" transform="translate(0.96 0.5)"/><path class="cls-2" d="M522.32,882.57h-4.81V813.85h4.81v5.5a51.31,51.31,0,0,1,25-6.73q12.78,0,17.18,6.94t4.4,27.28v35.73H564.1V847.11q0-18.15-3.3-24.12t-14.43-6a41.62,41.62,0,0,0-11.48,1.71,56.43,56.43,0,0,0-9.27,3.37l-3.3,1.79Z" transform="translate(0.96 0.5)"/><path class="cls-2" d="M598.6,835.43q0,10.18,4.26,14.16t14.64,4q10.37,0,14.7-3.92t4.33-14.23q0-10.3-4.33-14.43t-14.7-4.12q-10.38,0-14.64,4.19t-4.26,14.36m-1,58q0,10.17,4.33,13.88T619.56,911q13.26,0,18.9-3.92t5.64-13.33q0-9.42-4.12-12.17t-15.39-2.75l-16.63-.41q-6.18,4.26-8.24,7.22a13.26,13.26,0,0,0-2.06,7.76m51.54.28q0,11.68-6.94,16.7t-23,5q-16,0-21.3-4.61t-5.29-17.25q0-7.83,5.22-12.51a78.1,78.1,0,0,1,6.46-5.09q-3-1.92-3-8.93,0-1.92,3.16-8.52l1-2.2q-11.83-3.84-11.82-20.89,0-22.95,23.51-22.95a52.73,52.73,0,0,1,12.64,1.37l1.93.41,19.24-.41v4.82H636.12q5.49,5.08,5.5,17.11t-6,17.11q-6,5.09-19,5.09a45.59,45.59,0,0,1-7.42-.55q-3.16,7.83-3.16,9.9a13.68,13.68,0,0,0,.28,3.16,5,5,0,0,0,1.1,2.06,4.87,4.87,0,0,0,3.16,1.24q4.25.68,16.08.69t17.18,3.78q5.37,3.78,5.36,15.46" transform="translate(0.96 0.5)"/><path class="cls-2" d="M711,882.57h-4.81V813.85H711v5.5l3.3-1.85a47.76,47.76,0,0,1,8-3,41.38,41.38,0,0,1,12.3-1.85q12.64,0,17.32,7.42a60.17,60.17,0,0,1,12.1-5.15,43.64,43.64,0,0,1,13.19-2.27q13.74,0,18.14,6.94t4.4,27.28v35.73H795V847.11Q795,829,791.7,823t-14.43-6a42.26,42.26,0,0,0-11.82,1.71,42.81,42.81,0,0,0-8.79,3.37l-3,1.65q2.47,6.73,2.47,23.09v35.73h-4.81V847.11q0-18.15-3.3-24.12t-14.43-6a38.07,38.07,0,0,0-11.13,1.71,43.64,43.64,0,0,0-8.52,3.37L711,823.88Z" transform="translate(0.96 0.5)"/><path class="cls-2" d="M830.59,852.74q-3.29,3.71-3.3,11.13t3.37,11.48q3.37,4.06,9.41,4.05A61,61,0,0,0,852.86,878a86.92,86.92,0,0,0,10.58-2.82l3.85-1.38V845.6l-25.56,2.61q-7.83.83-11.13,4.53m41.51-18.69v39.58q.55,5,10.31,5.77l-.28,4.26q-10,0-14.16-5.77a71,71,0,0,1-27.76,5.92q-8.53,0-13.27-5.09t-4.74-14.5q0-9.41,4.53-14.36t14.43-5.91l26.11-2.75v-7.14q0-8.79-3.78-12.78t-11.48-4a181.43,181.43,0,0,0-21.72,1.79l-4.26.55-.41-4.53A169.92,169.92,0,0,1,852,812.61q20.07,0,20.07,21.44" transform="translate(0.96 0.5)"/><path class="cls-2" d="M925.84,817q-13.06,0-18.08,6.6t-5,24.12q0,17.53,4.54,24.6t18.55,7.08l16.49-1.24.28,4.4q-11.55,1.24-16.77,1.24-16.77,0-22.47-7.91t-5.71-28q0-20.14,6.32-27.7t21.85-7.56L942.33,814l-.28,4.4A145.68,145.68,0,0,0,925.84,817" transform="translate(0.96 0.5)"/><path class="cls-2" d="M969.82,882.57H965V782.24h4.81V818a60.71,60.71,0,0,1,24.88-5.36q12.78,0,17.18,6.94t4.4,27.28v35.73h-4.81V847.11q0-18.15-3.3-24.12t-14.43-6a51.5,51.5,0,0,0-11.47,1.37,55.49,55.49,0,0,0-9.14,2.75l-3.3,1.38Z" transform="translate(0.96 0.5)"/><path class="cls-2" d="M1043.07,882.57h4.81V813.85h-4.81Zm0-88.65h4.81v-7.56h-4.81Z" transform="translate(0.96 0.5)"/><path class="cls-2" d="M1080.18,882.57h-4.81V813.85h4.81v5.5a51.31,51.31,0,0,1,25-6.73q12.78,0,17.18,6.94t4.4,27.28v35.73H1122V847.11q0-18.15-3.3-24.12t-14.43-6a41.62,41.62,0,0,0-11.48,1.71,56.42,56.42,0,0,0-9.27,3.37l-3.3,1.79Z" transform="translate(0.96 0.5)"/><path class="cls-2" d="M1155.63,845.74h43.7q0-15.53-5-22.13t-16-6.6q-22.68,0-22.67,28.73m41.78,32.71,4.12-.28.28,4.4q-15.4,1.24-25.43,1.24-14.57-.14-20.2-8.87t-5.64-26.73q0-35.59,27.76-35.6,13.06,0,19.59,7.83t6.52,25.15v4.53h-48.79q0,14.84,4.67,22.06t15.53,7.22q10.86,0,21.58-1" transform="translate(0.96 0.5)"/><path class="cls-2" d="M1247.71,817q-18.42,0-18.42,13.75,0,6.45,3.85,9.13t17,4.75q13.19,2.06,18.42,5.49t5.22,13.82q0,10.37-6.6,15.12t-19.52,4.74a140.49,140.49,0,0,1-18.69-1.65l-4-.55.55-4.53a160,160,0,0,0,23.64,2.34q8.79,0,14.16-3.43t5.36-11.68q0-8.25-4.19-10.86t-17.18-4.6q-13-2-18.08-5.36t-5.09-11.34q0-8,3.71-12.3a17.89,17.89,0,0,1,8.66-5.77,36.55,36.55,0,0,1,10.3-1.44,136.87,136.87,0,0,1,20.89,1.51l3.58.55-.28,4.54a155.89,155.89,0,0,0-23.37-2.2" transform="translate(0.96 0.5)"/><path class="cls-2" d="M1366.87,818.25h-25v36q0,15.81,2.26,20.55t10.38,4.75l13.47-1.1.41,4.4a125.47,125.47,0,0,1-13.88,1.1q-9.76,0-13.61-5T1337,859.48V818.25h-10.86v-4.4H1337v-22.4h4.81v22.4h25Z" transform="translate(0.96 0.5)"/><path class="cls-2" d="M1398.83,877.83a47.72,47.72,0,0,0,24.33,0,12.42,12.42,0,0,0,6.87-5.91,26.78,26.78,0,0,0,3.09-9.76,128,128,0,0,0,.69-15.19q0-17.31-4.81-23.64T1411,817q-13.2,0-18,6.32T1388.17,847a128,128,0,0,0,.69,15.19,26.79,26.79,0,0,0,3.1,9.76,12.39,12.39,0,0,0,6.87,5.91m-9.41-57.52q6.32-7.7,21.58-7.7t21.57,7.7q6.33,7.7,6.32,27.76t-5.64,27.9q-5.64,7.83-22.26,7.84T1388.72,876q-5.64-7.83-5.64-27.9t6.32-27.76" transform="translate(0.96 0.5)"/><rect class="cls-2" x="1501.55" y="782.74" width="4.81" height="100.33"/><path class="cls-2" d="M1535.92,845.74h43.71q0-15.53-5-22.13t-16-6.6q-22.68,0-22.67,28.73m41.78,32.71,4.12-.28.28,4.4q-15.4,1.24-25.43,1.24-14.57-.14-20.2-8.87t-5.64-26.73q0-35.59,27.76-35.6,13.06,0,19.59,7.83t6.52,25.15v4.53h-48.79q0,14.84,4.67,22.06t15.53,7.22q10.86,0,21.58-1" transform="translate(0.96 0.5)"/><path class="cls-2" d="M1612.6,852.74q-3.29,3.71-3.3,11.13t3.37,11.48q3.37,4.06,9.41,4.05a61.05,61.05,0,0,0,12.78-1.44,86.92,86.92,0,0,0,10.58-2.82l3.85-1.38V845.6l-25.56,2.61q-7.83.83-11.13,4.53m41.51-18.69v39.58q.55,5,10.31,5.77l-.28,4.26q-10,0-14.16-5.77a71,71,0,0,1-27.76,5.92q-8.53,0-13.27-5.09t-4.74-14.5q0-9.41,4.53-14.36t14.43-5.91l26.11-2.75v-7.14q0-8.79-3.78-12.78t-11.48-4a181.44,181.44,0,0,0-21.72,1.79l-4.26.55-.41-4.53a169.92,169.92,0,0,1,26.39-2.48q20.07,0,20.07,21.44" transform="translate(0.96 0.5)"/><path class="cls-2" d="M1682.29,882.57V813.85h4.81v10.72a62,62,0,0,1,12.3-7.07,63.43,63.43,0,0,1,14.91-5v4.95a67.92,67.92,0,0,0-12.85,4.12,77.05,77.05,0,0,0-10.51,5.22l-3.85,2.34v53.46Z" transform="translate(0.96 0.5)"/><path class="cls-2" d="M1738,882.57h-4.81V813.85H1738v5.5a51.31,51.31,0,0,1,25-6.73q12.78,0,17.18,6.94t4.4,27.28v35.73h-4.81V847.11q0-18.15-3.3-24.12T1762,817a41.62,41.62,0,0,0-11.48,1.71,56.7,56.7,0,0,0-9.28,3.37l-3.3,1.79Z" transform="translate(0.96 0.5)"/><path class="cls-2" d="M162.28,480.28h-21V669.33h21Zm67.2,189.06V498.85h5.19l73.49,170.48h38.52V480.28H325.92V650.76h-5.74l-72.4-170.48H208.45V669.33ZM431.65,499.13V669.33h20.76V499.13h57.64V480.28H373.46v18.85Zm220.2,170.21V650.76h-94v-68.3h77.59v-18.3H557.87v-65.3h94V480.28h-115V669.33ZM792,650.49H709V480.28h-21V669.33H792Zm130.86,0H839.81V480.28h-21V669.33H922.86Zm47.81-170.21h-21V669.33h21Zm152.45,111.19v58.19a207.18,207.18,0,0,1-39.07,3.83q-31.15,0-42.07-18.17T1031,574.94q0-42.21,10.93-60.38t42.34-18.17q24.86,0,58.74,5.74l.82-17.48-9.29-1.64a269,269,0,0,0-52.73-5.47q-40.7,0-56.69,23.91t-16,73.49q0,49.59,16,73.36t57.24,23.76q27,0,61.47-6.56V572.62H1091.7v18.85Zm177,77.86V650.76h-94v-68.3h77.59v-18.3h-77.59v-65.3h94V480.28h-115V669.33Zm57.1,0V498.85h5.19l73.49,170.48h38.52V480.28H1453.7V650.76H1448l-72.4-170.48h-39.34V669.33Zm277-21q-26.23,4.91-45.49,4.92t-29.24-4.51a30.76,30.76,0,0,1-15.16-15,76.08,76.08,0,0,1-7-23.63q-1.78-13.11-1.77-34.69,0-43.16,9.7-61.07t39.75-17.89q21.57,0,49.18,4.92l.82-17.76q-29.51-6-51.37-6t-35.51,6A44.53,44.53,0,0,0,1527,502.68a90.45,90.45,0,0,0-10.38,30.19q-2.87,17.08-2.87,42.21t2.87,41.94A88.85,88.85,0,0,0,1527,646.8a45.38,45.38,0,0,0,21.31,19.12q13.8,6.14,36.2,6.14t50.55-5.74Zm150.26,21V650.76h-94v-68.3h77.59v-18.3h-77.59v-65.3h94V480.28h-115V669.33Z" transform="translate(0.96 0.5)"/><path class="cls-2" d="M1784.54,400.28V376.69h-103.9V163.76h-26.32V400.28Zm-435.77,0h26.32V163.76h-26.32Zm-174.14-74.17q-2.22-16.41-2.22-43.41,0-54,12.13-76.39t49.73-22.39q27,0,61.53,6.15l1-22.22q-36.91-7.51-64.26-7.51t-44.43,7.51a55.68,55.68,0,0,0-26.49,23.93q-9.41,16.41-13,37.77t-3.59,52.81q0,31.46,3.59,52.47a110.81,110.81,0,0,0,13,37.25A56.69,56.69,0,0,0,1188.3,396q17.26,7.68,45.29,7.69t63.23-7.18l-1-22.56q-32.81,6.16-56.91,6.15t-36.57-5.64q-12.48-5.64-19-18.8a95.23,95.23,0,0,1-8.72-29.56M1061,400.28h26.32V163.76H1061ZM898.64,187h115.18V163.76H872.32V400.28h26.32V302.52h97.41V279.28H898.64ZM779.36,400.28h26.32V163.76H779.36ZM664.86,187.34H737V163.76H566.09v23.58h72.8V400.28h26ZM539.77,400.28l-45.46-96q43.4-14,43.41-68.7,0-36.91-19-54.34t-56.57-17.43h-87.5V400.28H401V309.7h67l42.72,90.58ZM462.52,286.46H401V187h61.18q48.53,0,48.54,49.73t-48.19,49.73" transform="translate(0.96 0.5)"/><polygon class="cls-2" points="207.14 164.26 142.2 400.78 167.74 400.78 191.11 316.35 191.07 316.35 226.97 186.81 244.74 186.81 244.77 186.95 244.95 186.95 303.94 400.78 329.5 400.78 264.56 164.26 207.14 164.26"/><polygon class="cls-2" points="1486.64 164.26 1421.7 400.78 1447.24 400.78 1470.62 316.35 1470.58 316.35 1506.46 186.81 1524.23 186.81 1524.27 186.95 1524.45 186.95 1583.44 400.78 1609 400.78 1544.06 164.26 1486.64 164.26"/></svg>